<svg xmlns="http://www.w3.org/2000/svg" xmlns:xlink="http://www.w3.org/1999/xlink" width="75.736" height="72.637" viewBox="0 0 75.736 72.637">
  <defs>
    <linearGradient id="linear-gradient" x1="1" y1="0.359" x2="0.344" y2="1.15" gradientUnits="objectBoundingBox">
      <stop offset="0" stop-color="#cf91f1"/>
      <stop offset="1" stop-color="#555bbe"/>
    </linearGradient>
  </defs>
  <path id="Caminho_4" data-name="Caminho 4" d="M93.707,97.213l7.111-40.389L71.282,85.878s-9.046,7.7-.43,15.84c.615.581,1.574,1.65,2.362,2.456.638.651,1.383,1.4,2.267,2.329,1.171,1.235,2.657,2.57,4.037,3.8a83.876,83.876,0,0,0,8.742,6.865s11.276,8.3,15.2,0,5.488-27.472,6.462-32.248c.955-4.685,3-8.78,9.838-3.616a5.949,5.949,0,0,0-.775-.555c.075.075,1.105.887,1.377,1.137,1.7,1.3,2.32,1.979,4.045,3.5,1.884,1.867,3.2,2.849,4.377,4.234a14.008,14.008,0,0,1,2.131,3.163s.562.986,1.1,2.107A5.51,5.51,0,0,1,132.3,97.5c-.149,1.345-1.294,5.768-5.106,5.4-7.475-.16-10.556-10.641-10.556-10.641l-8.619,37.2,31.3-26.022s7.982-7.184,0-16.124a114,114,0,0,0-17.991-15.8s-12.09-9.321-15.611,1.215c-.023.059-.643,1.931-.734,2.3-2.914,11.814-5.069,31.48-5.069,31.48s-1.52,9.229-8.995,2.2-9.539-11.494-9.539-11.494-2.439-5.009,2.824-7.024S93.707,97.213,93.707,97.213Z" transform="translate(-67.131 -56.824)" fill="url(#linear-gradient)"/>
</svg>
